<svg aria-hidden="true" style="position: absolute; width: 0; height: 0; overflow: hidden;" version="1.1" xmlns="http://www.w3.org/2000/svg" xmlns:xlink="http://www.w3.org/1999/xlink">
<defs>
<symbol id="icon-smartp" viewBox="0 0 20 32">
<path fill="#757575" style="fill: var(--color1, #757575)" d="M17 0h-14c-1.66 0-3 1.34-3 3v26c0 1.66 1.34 3 3 3h14c1.66 0 3-1.34 3-3v-26c0-1.66-1.34-3-3-3zM3 2h14c0.56 0 1 0.44 1 1v21h-16v-21c0-0.56 0.44-1 1-1zM17 30h-14c-0.552 0-1-0.448-1-1v0-3h16v3c0 0.552-0.448 1-1 1v0z"></path>
</symbol>
<symbol id="icon-mailblack" viewBox="0 0 43 32">
<path d="M37.333 0h-32c-2.187 0-4 1.813-4 4v24c0 2.187 1.813 4 4 4h32c2.187 0 4-1.813 4-4v-24c0-2.187-1.813-4-4-4zM36.533 8.507l-14.133 8.827c-0.303 0.19-0.672 0.303-1.067 0.303s-0.764-0.113-1.075-0.308l0.008 0.005-14.133-8.8c-0.546-0.292-0.911-0.858-0.911-1.51 0-0.943 0.764-1.707 1.707-1.707 0.383 0 0.737 0.126 1.022 0.339l-0.004-0.003 13.387 8.347 13.413-8.373c0.289-0.233 0.661-0.373 1.066-0.373 0.943 0 1.707 0.764 1.707 1.707 0 0.681-0.399 1.268-0.975 1.542l-0.010 0.004z"></path>
</symbol>
<symbol id="icon-phone" viewBox="0 0 32 32">
<path d="M27.429 20.846l-4.206-0.457c-1.006-0.137-2.011 0.229-2.72 0.914l-3.040 3.063c-4.718-2.435-8.468-6.185-10.838-10.764l-0.065-0.139 3.063-3.063c0.709-0.709 1.051-1.714 0.937-2.72l-0.457-4.16c-0.201-1.656-1.598-2.926-3.291-2.926-0.016 0-0.032 0-0.048 0l0.002-0h-2.834c-1.874 0-3.429 1.554-3.314 3.429 0.92 14.132 12.154 25.366 26.202 26.281l0.083 0.004c1.874 0.114 3.429-1.44 3.429-3.314v-2.857c0-1.691-1.234-3.086-2.903-3.291z"></path>
</symbol>
<symbol id="icon-Humen" viewBox="0 0 32 32">
<path fill="#2196f3" style="fill: var(--color2, #2196f3)" d="M16 16c4.418 0 8-3.582 8-8s-3.582-8-8-8v0c-4.418 0-8 3.582-8 8s3.582 8 8 8v0zM16 20c-5.333 0-16 2.667-16 8v2c0 1.093 0.907 2 2 2h28c1.093 0 2-0.907 2-2v-2c0-5.333-10.667-8-16-8z"></path>
</symbol>
<symbol id="icon-facebook" viewBox="0 0 18 32">
<path fill="#afb1b8" style="fill: var(--color3, #afb1b8)" d="M13.328 5.312h2.928v-5.088c-0.512-0.064-2.24-0.224-4.256-0.224-4.224 0-7.104 2.656-7.104 7.52v4.48h-4.64v5.68h4.64v14.32h5.696v-14.304h4.464l0.704-5.696h-5.168v-3.92c0-1.648 0.448-2.768 2.736-2.768z"></path>
</symbol>
<symbol id="icon-x" viewBox="0 0 36 32">
<path fill="#afb1b8" style="fill: var(--color3, #afb1b8)" d="M35.556 4.978c-1.316 0.587-2.738 0.96-4.196 1.156 1.511-0.907 2.667-2.311 3.2-4.036-1.422 0.836-2.969 1.422-4.622 1.778-1.336-1.442-3.239-2.341-5.353-2.341-4.026 0-7.289 3.263-7.289 7.289 0 0.597 0.072 1.178 0.207 1.734l-0.010-0.050c-6.069-0.312-11.405-3.203-14.975-7.589l-0.030-0.038c-0.62 1.054-0.986 2.322-0.986 3.675 0 2.511 1.26 4.728 3.183 6.051l0.025 0.016c-1.156 0-2.311-0.356-3.289-0.889v0.071c0 3.556 2.524 6.489 5.849 7.164-0.576 0.164-1.237 0.258-1.92 0.258-0.491 0-0.97-0.049-1.433-0.141l0.046 0.008c0.976 2.915 3.649 4.992 6.818 5.066l0.009 0c-2.468 1.959-5.629 3.142-9.065 3.142-0.608 0-1.208-0.037-1.796-0.109l0.071 0.007c3.14 2.051 6.984 3.271 11.114 3.271 0.024 0 0.048-0 0.072-0h-0.004c13.422 0 20.747-11.111 20.747-20.747 0-0.32 0-0.64-0.036-0.942 1.458-1.031 2.667-2.311 3.662-3.787z"></path>
</symbol>
<symbol id="icon-brand" viewBox="0 0 57 32">
<path fill="#afb1b8" style="fill: var(--color3, #afb1b8)" d="M14.272 23.861c0.128 0.144 0.197 0.331 0.192 0.517 0.011 0.123-0.016 0.245-0.069 0.363-0.053 0.112-0.128 0.213-0.229 0.299-0.256 0.171-0.565 0.256-0.885 0.24h-1.547v-3.307h1.515c0.025-0.002 0.054-0.003 0.083-0.003 0.283 0 0.545 0.085 0.765 0.23l-0.005-0.003c0.096 0.075 0.176 0.171 0.224 0.277 0.053 0.107 0.075 0.224 0.069 0.341 0.011 0.181-0.053 0.357-0.176 0.501-0.117 0.133-0.277 0.224-0.459 0.261 0.203 0.032 0.389 0.133 0.523 0.283zM12.459 23.36h0.64c0.149 0.011 0.299-0.027 0.416-0.107 0.053-0.043 0.085-0.091 0.107-0.149 0.027-0.053 0.037-0.117 0.032-0.176 0.001-0.010 0.002-0.022 0.002-0.034 0-0.051-0.010-0.1-0.029-0.145l0.001 0.002c-0.025-0.057-0.062-0.105-0.106-0.144l-0.001-0c-0.105-0.071-0.235-0.114-0.374-0.114-0.018 0-0.037 0.001-0.055 0.002l0.002-0h-0.64v0.864zM13.579 24.624c0.053-0.037 0.091-0.091 0.117-0.149 0.027-0.053 0.037-0.123 0.037-0.181 0-0.006 0.001-0.013 0.001-0.020 0-0.060-0.014-0.118-0.039-0.169l0.001 0.002c-0.029-0.062-0.071-0.114-0.122-0.154l-0.001-0.001c-0.111-0.074-0.247-0.119-0.394-0.119-0.015 0-0.030 0-0.045 0.001l0.002-0h-0.683v0.907h0.693c0.149 0.011 0.304-0.032 0.427-0.117zM17.371 25.28l-0.837-1.291h-0.32v1.291h-0.725v-3.307h1.376c0.029-0.002 0.064-0.003 0.099-0.003 0.325 0 0.624 0.107 0.865 0.289l-0.004-0.003c0.203 0.182 0.33 0.446 0.33 0.739 0 0.239-0.084 0.457-0.224 0.628l0.001-0.002c-0.176 0.181-0.411 0.299-0.661 0.336l0.896 1.323h-0.789zM16.208 23.536h0.597c0.411 0 0.619-0.16 0.619-0.496 0-0.006 0-0.014 0-0.021 0-0.066-0.014-0.128-0.039-0.184l0.001 0.003c-0.028-0.067-0.068-0.124-0.117-0.17l-0-0c-0.112-0.085-0.254-0.136-0.408-0.136-0.020 0-0.039 0.001-0.058 0.002l0.003-0h-0.603l0.005 1.003zM21.339 24.613h-1.445l-0.256 0.667h-0.763l1.333-3.269h0.821l1.323 3.269h-0.763l-0.256-0.667zM21.147 24.112l-0.533-1.392-0.528 1.392h1.061zM26.304 25.28h-0.72l-1.616-2.245v2.24h-0.715v-3.296h0.72l1.616 2.256v-2.256h0.72v3.301zM30.416 24.485c-0.149 0.251-0.373 0.453-0.651 0.587-0.315 0.144-0.661 0.213-1.013 0.208h-1.28v-3.307h1.28c0.352-0.005 0.699 0.064 1.013 0.208 0.277 0.128 0.501 0.325 0.651 0.576 0.14 0.249 0.222 0.547 0.222 0.864s-0.082 0.615-0.227 0.873l0.005-0.009zM29.595 24.411c0.203-0.219 0.32-0.501 0.32-0.789s-0.117-0.571-0.32-0.789c-0.223-0.175-0.507-0.28-0.816-0.28-0.032 0-0.063 0.001-0.095 0.003l0.004-0h-0.496v2.133h0.501c0.325 0.021 0.651-0.080 0.901-0.277zM21.792 3.611s9.296 3.211 9.099 7.867v7.867s-9.291-3.216-9.099-7.867v-7.867zM39.179 17.504c1.686-1.070 3.696-1.784 5.855-1.99l0.054-0.004v-2.464c-2.445 0.858-4.467 2.411-5.884 4.421l-0.025 0.038z"></path>
<path fill="#afb1b8" style="fill: var(--color3, #afb1b8)" d="M38.123 18.24c1.526-2.691 3.961-4.717 6.878-5.682l0.087-0.025v-7.109s-13.248 4.592-12.965 11.216v11.2s0.587-0.203 1.52-0.587c0-0.363 0-0.72 0.043-1.083 0.331-3.247 1.986-6.053 4.41-7.905l0.027-0.020z"></path>
<path fill="#afb1b8" style="fill: var(--color3, #afb1b8)" d="M36.864 22.405c0.069-0.773 0.224-1.547 0.464-2.293-1.668 1.772-2.72 4.139-2.805 6.751l-0 0.017c1.106-0.482 1.943-0.893 2.763-1.331l-0.214 0.104c-0.235-1.067-0.304-2.16-0.208-3.248zM37.387 22.448c-0.085 0.981-0.027 1.973 0.165 2.933 3.621-1.979 7.685-5.040 7.531-8.747v-0.32c-2.658 0.265-5.026 1.334-6.901 2.957l0.016-0.013c-0.415 0.933-0.701 2.015-0.803 3.15l-0.003 0.039z"></path>
</symbol>
<symbol id="icon-line" viewBox="0 0 57 32">
<path fill="#afb1b8" style="fill: var(--color3, #afb1b8)" d="M28.491 14.613c-0.202-0.262-0.323-0.594-0.323-0.955 0-0.035 0.001-0.071 0.003-0.105l-0 0.005v-1.536c0-0.475 0.107-0.832 0.32-1.077s0.587-0.368 1.104-0.363c0.485 0 0.837 0.107 1.040 0.309 0.224 0.267 0.331 0.592 0.309 0.923v0.357h-0.875v-0.363c0-0.123-0.005-0.24-0.027-0.357-0.014-0.086-0.059-0.161-0.122-0.213l-0.001-0c-0.079-0.054-0.178-0.087-0.283-0.087-0.013 0-0.026 0-0.038 0.001l0.002-0c-0.009-0.001-0.021-0.001-0.032-0.001-0.112 0-0.215 0.034-0.301 0.093l0.002-0.001c-0.074 0.058-0.127 0.139-0.149 0.232l-0.001 0.003c-0.021 0.123-0.032 0.251-0.032 0.373v1.867c-0.016 0.187 0.027 0.363 0.112 0.528 0.043 0.053 0.107 0.101 0.176 0.128 0.050 0.019 0.107 0.030 0.167 0.030 0.020 0 0.040-0.001 0.059-0.004l-0.002 0c0.012 0.001 0.027 0.002 0.041 0.002 0.1 0 0.193-0.031 0.27-0.083l-0.002 0.001c0.069-0.056 0.118-0.136 0.133-0.227l0-0.002c0.016-0.123 0.027-0.251 0.027-0.373v-0.384h0.875v0.347c0.021 0.341-0.085 0.683-0.304 0.965-0.203 0.229-0.544 0.341-1.045 0.341-0.507 0-0.885-0.123-1.104-0.373zM32.139 14.635c-0.224-0.24-0.331-0.587-0.331-1.051v-1.616c0-0.459 0.107-0.8 0.331-1.040 0.219-0.235 0.587-0.352 1.109-0.347 0.512 0 0.88 0.112 1.099 0.347 0.224 0.235 0.336 0.581 0.336 1.040v1.616c0 0.459-0.112 0.805-0.336 1.045-0.224 0.245-0.587 0.363-1.099 0.363s-0.891-0.123-1.109-0.357zM33.653 14.245c0.080-0.149 0.117-0.315 0.107-0.48v-1.979c0.011-0.16-0.027-0.32-0.107-0.469-0.046-0.057-0.105-0.101-0.173-0.127l-0.003-0.001c-0.050-0.019-0.108-0.031-0.168-0.031-0.021 0-0.043 0.001-0.063 0.004l0.002-0c-0.019-0.003-0.041-0.004-0.064-0.004-0.061 0-0.12 0.011-0.174 0.032l0.003-0.001c-0.073 0.027-0.134 0.071-0.181 0.127l-0.001 0.001c-0.075 0.144-0.112 0.309-0.107 0.469v1.989c-0.005 0.16 0.027 0.331 0.107 0.48 0.109 0.098 0.254 0.158 0.413 0.158 0.080 0 0.156-0.015 0.226-0.042l-0.004 0.001c0.075-0.027 0.133-0.069 0.187-0.117v-0.011zM35.733 10.624h0.944l0.709 2.987 0.725-2.987h0.917l0.091 4.309h-0.677l-0.075-2.992-0.693 2.992h-0.555l-0.725-3.003-0.064 3.003h-0.688l0.085-4.309zM40.176 10.624h1.467c0.848 0 1.269 0.411 1.269 1.227 0 0.779-0.443 1.173-1.333 1.173h-0.501v1.909h-0.907l0.005-4.309zM41.429 12.469c0.091 0.005 0.181 0 0.267-0.021 0.085-0.027 0.165-0.064 0.235-0.117 0.101-0.144 0.149-0.32 0.128-0.485 0-0.133-0.011-0.267-0.043-0.389-0.015-0.048-0.038-0.089-0.070-0.123l0 0c-0.031-0.035-0.068-0.063-0.11-0.084l-0.002-0.001c-0.128-0.053-0.267-0.075-0.405-0.069h-0.352v1.291h0.352zM44.213 10.624h0.976l1.003 4.309h-0.848l-0.197-0.992h-0.869l-0.203 0.992h-0.853l0.997-4.309zM45.051 13.44l-0.341-1.808-0.336 1.813h0.677zM46.997 10.624h0.635l1.211 2.459v-2.453h0.757v4.304h-0.603l-1.221-2.56v2.56h-0.779v-4.309zM51.36 13.291l-1.013-2.661h0.853l0.613 1.707 0.576-1.707h0.832l-0.997 2.667v1.637h-0.864v-1.643zM29.893 16.816v0.224h-0.741v1.755h-0.309v-1.755h-0.747v-0.224h1.797zM32.213 18.795h-0.245c-0.024 0-0.046-0.008-0.064-0.022l0 0c-0.018-0.010-0.033-0.025-0.042-0.042l-0-0.001-0.213-0.469h-1.024l-0.213 0.469c-0.006 0.021-0.018 0.039-0.032 0.053v0c-0.016 0.010-0.036 0.017-0.057 0.017-0.004 0-0.008-0-0.013-0.001l0 0h-0.24l0.907-1.973h0.32l0.912 1.968zM30.709 18.059h0.853l-0.363-0.8c-0.023-0.052-0.044-0.116-0.062-0.182l-0.002-0.010-0.037 0.107-0.032 0.085-0.357 0.8zM33.771 18.597h0.171c0.101-0.005 0.195-0.024 0.284-0.055l-0.007 0.002 0.117-0.053v-0.443h-0.363c-0.001 0-0.001 0-0.002 0-0.018 0-0.034-0.006-0.046-0.016l0 0c-0.004-0.004-0.008-0.010-0.011-0.016l-0-0-0.005-0.021v-0.149h0.704v0.757c-0.174 0.108-0.381 0.179-0.603 0.197l-0.005 0c-0.091 0.011-0.176 0.016-0.267 0.016-0.16 0-0.309-0.027-0.459-0.075-0.14-0.049-0.26-0.12-0.364-0.209l0.001 0.001c-0.095-0.085-0.172-0.188-0.227-0.304l-0.002-0.006c-0.059-0.133-0.085-0.272-0.085-0.411-0-0.010-0.001-0.022-0.001-0.034 0-0.277 0.124-0.524 0.319-0.691l0.001-0.001c0.096-0.091 0.224-0.16 0.357-0.208 0.142-0.048 0.305-0.076 0.475-0.076 0.092 0 0.183 0.008 0.271 0.024l-0.009-0.001c0.149 0.021 0.284 0.066 0.407 0.131l-0.007-0.003c0.053 0.027 0.107 0.064 0.16 0.101l-0.091 0.123c-0.008 0.012-0.019 0.021-0.032 0.026l-0 0c-0.011 0.006-0.024 0.010-0.037 0.011h-0c-0.020-0.001-0.038-0.007-0.054-0.016l0.001 0c-0.032-0.011-0.059-0.027-0.091-0.048-0.144-0.071-0.314-0.112-0.494-0.112-0.008 0-0.017 0-0.025 0l0.001-0c-0.005-0-0.012-0-0.018-0-0.119 0-0.234 0.020-0.341 0.056l0.008-0.002c-0.107 0.037-0.192 0.091-0.267 0.16s-0.133 0.149-0.171 0.24c-0.080 0.213-0.080 0.448 0 0.661 0.126 0.267 0.393 0.449 0.702 0.449 0.035 0 0.069-0.002 0.102-0.007l-0.004 0zM36.661 18.565h0.987v0.229h-1.291v-1.973h0.309l-0.005 1.744zM38.677 18.795h-0.309v-1.973h0.309v1.973zM39.829 16.827c0.021 0.011 0.037 0.021 0.048 0.037l1.323 1.488v-1.541h0.267v1.984h-0.149c-0.027 0-0.048 0-0.069-0.011-0.019-0.010-0.034-0.022-0.048-0.037l-0-0-1.323-1.493v1.541h-0.261v-1.973h0.213zM43.755 16.816v0.213h-1.099v0.656h0.891v0.213h-0.891v0.672h1.099v0.213h-1.419v-1.968h1.419zM11.285 4.619l13.76 3.371v11.819l-13.76-3.371v-11.819zM10.405 3.605v13.408l15.52 3.808v-13.408l-15.525-3.803z"></path>
<path fill="#afb1b8" style="fill: var(--color3, #afb1b8)" d="M18.72 27.040l-15.52-3.819v-13.392l15.52 3.808v13.397z"></path>
<path fill="#afb1b8" style="fill: var(--color3, #afb1b8)" d="M10.661 4.464l13.579 3.328-5.776 4.987-13.579-3.328 5.776-4.987zM10.405 3.611l-7.205 6.219 15.52 3.808 7.2-6.224-15.52-3.803zM19.595 26.283l6.331-5.467-6.331-1.552v7.019z"></path>
</symbol>
<symbol id="icon-ln" viewBox="0 0 32 32">
<path fill="#afb1b8" style="fill: var(--color3, #afb1b8)" d="M32 32v-11.744c0-5.728-1.232-10.16-7.952-10.16-0.076-0.003-0.166-0.005-0.256-0.005-2.555 0-4.788 1.376-5.999 3.428l-0.018 0.032h-0.096v-2.912h-6.368v21.36h6.64v-10.576c0-2.784 0.528-5.488 3.968-5.488 3.408 0 3.456 3.184 3.456 5.664v10.4h6.624zM0.528 10.64h6.64v21.36h-6.64v-21.36zM3.84 0c-2.121 0-3.84 1.719-3.84 3.84v0c-0 0.005-0 0.010-0 0.016 0 2.127 1.715 3.854 3.838 3.872h0.002c2.128 0 3.84-1.76 3.84-3.888 0-2.121-1.719-3.84-3.84-3.84v0z"></path>
</symbol>
<symbol id="icon-inst" viewBox="0 0 32 32">
<path fill="#afb1b8" style="fill: var(--color3, #afb1b8)" d="M27.406 6.72c-0.017-1.002-0.209-1.954-0.545-2.834l0.019 0.057c-0.305-0.792-0.756-1.467-1.325-2.022l-0.001-0.001c-0.571-0.571-1.257-1.029-2.023-1.314-0.822-0.32-1.774-0.515-2.768-0.537l-0.009-0c-1.041-0.050-2.262-0.078-3.49-0.078-0.429 0-0.856 0.003-1.283 0.010l0.064-0.001c-3.109 0-3.497 0.011-4.709 0.069-1.223 0.057-2.057 0.251-2.777 0.526-0.766 0.297-1.451 0.743-2.023 1.326-0.583 0.571-1.029 1.257-1.326 2.023-0.316 0.823-0.508 1.775-0.526 2.769l-0 0.008c-0.050 1.042-0.078 2.262-0.078 3.49 0 0.429 0.003 0.856 0.010 1.283l-0.001-0.064c0 3.109 0 3.497 0.057 4.709 0.021 1.003 0.217 1.955 0.556 2.834l-0.019-0.057c0.286 0.766 0.743 1.451 1.326 2.023 0.571 0.583 1.257 1.029 2.023 1.326 0.72 0.274 1.554 0.469 2.766 0.526 1.223 0.057 1.6 0.069 4.709 0.069s3.497-0.011 4.72-0.069c0.998-0.019 1.946-0.21 2.823-0.545l-0.057 0.019c1.543-0.608 2.741-1.806 3.335-3.309l0.014-0.040c0.274-0.731 0.48-1.554 0.526-2.777 0.057-1.211 0.069-1.6 0.069-4.709 0-3.097 0-3.486-0.057-4.709zM25.349 16.057c-0.046 1.109-0.229 1.714-0.389 2.114-0.394 1-1.171 1.777-2.146 2.162l-0.026 0.009c-0.4 0.16-1.017 0.343-2.126 0.389-1.2 0.057-1.566 0.069-4.617 0.069-0.332 0.005-0.724 0.008-1.116 0.008-1.231 0-2.456-0.028-3.674-0.083l0.173 0.006c-1.12-0.046-1.714-0.229-2.114-0.389-0.516-0.193-0.955-0.485-1.313-0.856l-0.001-0.001c-0.37-0.357-0.662-0.792-0.849-1.279l-0.008-0.024c-0.24-0.631-0.382-1.361-0.389-2.123l-0-0.003c-0.049-1.045-0.076-2.271-0.076-3.502 0-0.392 0.003-0.783 0.008-1.174l-0.001 0.059c0-3.051 0.011-3.417 0.069-4.617 0.046-1.12 0.229-1.714 0.389-2.126 0.183-0.491 0.469-0.937 0.857-1.303 0.36-0.371 0.799-0.663 1.29-0.849l0.024-0.008c0.4-0.16 1.006-0.343 2.126-0.389 1.2-0.057 1.566-0.069 4.606-0.069 3.063 0 3.429 0 4.617 0.069 1.12 0.046 1.714 0.229 2.126 0.389 0.491 0.183 0.949 0.469 1.314 0.857 0.377 0.366 0.674 0.811 0.857 1.303 0.149 0.411 0.343 1.017 0.389 2.126 0.057 1.2 0.069 1.566 0.069 4.617s-0.011 3.406-0.069 4.617z"></path>
<path fill="#afb1b8" style="fill: var(--color3, #afb1b8)" d="M16.046 5.554c-3.244 0-5.874 2.63-5.874 5.874s2.63 5.874 5.874 5.874v0c3.244 0 5.874-2.63 5.874-5.874s-2.63-5.874-5.874-5.874v0zM16.046 15.234c-2.102 0-3.806-1.704-3.806-3.806s1.704-3.806 3.806-3.806v0c2.102 0 3.806 1.704 3.806 3.806s-1.704 3.806-3.806 3.806v0zM23.52 5.326c0 0.757-0.614 1.371-1.371 1.371s-1.371-0.614-1.371-1.371v0c0-0.757 0.614-1.371 1.371-1.371s1.371 0.614 1.371 1.371v0z"></path>
</symbol>
<symbol id="icon-tg" viewBox="0 0 32 32">
<path fill="#fff" style="fill: var(--color4, #fff)" d="M32 0l-32 18 10.227 3.787 15.773-14.787-12 16.187v8.813l5.733-6.693 7.267 2.693 5-28z"></path>
</symbol>
<symbol id="icon-foster" viewBox="0 0 65 32">
<path fill="#2196f3" style="fill: var(--color2, #2196f3)" d="M10.019 9.981c-1.829 0-3.314 1.318-3.314 2.941 0 1.63 1.486 2.941 3.307 2.941 1.829 0 3.314-1.31 3.314-2.941 0-1.623-1.486-2.941-3.307-2.941zM34.438 9.044c-0.008-2.255-1.021-4.419-2.819-6.019-1.783-1.548-4.127-2.492-6.692-2.492-0.021 0-0.041 0-0.062 0h0.003c-2.537 0-4.975 0.899-6.766 2.499-1.701 1.464-2.782 3.608-2.819 6.005l-0 0.006v12.434s19.154-1.897 19.154-12.434zM0 25.562c0 1.57 0.709 3.070 1.958 4.183 1.242 1.079 2.875 1.737 4.662 1.737 0.014 0 0.027-0 0.041-0h-0.002c1.768 0 3.459-0.625 4.709-1.737 1.182-1.020 1.933-2.511 1.958-4.178l0-0.004v-8.648s-13.326 1.318-13.326 8.648zM6.659 27.109c-0.343 0-0.686-0.084-0.968-0.259-0.278-0.163-0.498-0.4-0.636-0.684l-0.004-0.009c-0.084-0.174-0.133-0.378-0.133-0.594 0-0.108 0.012-0.213 0.036-0.314l-0.002 0.009c0.069-0.305 0.229-0.571 0.48-0.792 0.243-0.214 0.546-0.365 0.88-0.425l0.011-0.002c0.335-0.053 0.686-0.023 1.006 0.091s0.594 0.312 0.785 0.571c0.182 0.238 0.292 0.539 0.292 0.866 0 0.436-0.195 0.827-0.503 1.090l-0.002 0.002c-0.168 0.152-0.358 0.259-0.571 0.343-0.213 0.076-0.434 0.114-0.67 0.114zM20.13 26.255h-1.288v1.333h-0.67v-3.253h2.118v0.541h-1.448v0.838h1.288v0.541zM23.345 26.034c0 0.32-0.053 0.602-0.168 0.838-0.202 0.453-0.648 0.763-1.166 0.763-0.016 0-0.032-0-0.048-0.001l0.002 0c-0.014 0-0.029 0.001-0.045 0.001-0.517 0-0.962-0.302-1.17-0.74l-0.003-0.008c-0.106-0.231-0.168-0.5-0.168-0.785 0-0.019 0-0.038 0.001-0.056l-0 0.003v-0.145c0-0.328 0.053-0.61 0.175-0.846 0.208-0.453 0.658-0.762 1.18-0.762 0.011 0 0.022 0 0.033 0l-0.002-0c0.267 0 0.51 0.069 0.716 0.198 0.213 0.13 0.381 0.32 0.488 0.564 0.122 0.236 0.175 0.518 0.175 0.838v0.152zM22.667 25.882c0-0.335-0.061-0.594-0.183-0.77-0.108-0.162-0.29-0.267-0.496-0.267-0.008 0-0.015 0-0.023 0l0.001-0c-0.229 0-0.404 0.084-0.526 0.259s-0.183 0.434-0.183 0.77v0.16c0 0.335 0.061 0.587 0.183 0.77s0.305 0.274 0.533 0.274c0.221 0 0.389-0.084 0.51-0.259s0.183-0.434 0.183-0.77v-0.16zM25.516 26.735c0-0.13-0.046-0.229-0.13-0.29-0.14-0.091-0.302-0.164-0.476-0.211l-0.012-0.003c-0.229-0.076-0.411-0.152-0.549-0.229-0.366-0.198-0.556-0.465-0.556-0.8 0-0.183 0.053-0.335 0.152-0.472s0.236-0.244 0.427-0.328c0.183-0.076 0.389-0.114 0.625-0.114 0.229 0 0.434 0.046 0.617 0.13 0.183 0.076 0.32 0.198 0.427 0.358 0.099 0.152 0.152 0.328 0.152 0.518h-0.67c0-0.152-0.053-0.267-0.145-0.343-0.098-0.081-0.225-0.13-0.363-0.13-0.012 0-0.023 0-0.034 0.001l0.002-0c-0.010-0.001-0.023-0.001-0.035-0.001-0.129 0-0.249 0.040-0.348 0.109l0.002-0.001c-0.084 0.060-0.137 0.157-0.137 0.267 0 0.003 0 0.005 0 0.008v-0c0 0.107 0.053 0.19 0.16 0.267 0.107 0.069 0.267 0.137 0.472 0.198 0.381 0.114 0.655 0.259 0.838 0.427 0.168 0.168 0.251 0.381 0.251 0.632 0 0.282-0.099 0.503-0.312 0.663s-0.503 0.244-0.861 0.244c-0.006 0-0.014 0-0.021 0-0.24 0-0.469-0.050-0.675-0.142l0.011 0.004c-0.372-0.14-0.633-0.494-0.633-0.908 0-0.008 0-0.015 0-0.023l-0 0.001h0.67c0 0.358 0.221 0.533 0.648 0.533 0.152 0 0.282-0.030 0.373-0.091 0.084-0.076 0.13-0.16 0.13-0.274zM29.097 24.876h-0.998v2.712h-0.67v-2.712h-0.99v-0.533h2.651v0.533zM31.429 26.171h-1.28v0.876h1.509v0.533h-2.179v-3.246h2.171v0.541h-1.501v0.777h1.28v0.526zM33.257 26.4h-0.533v1.189h-0.678v-3.253h1.211c0.381 0 0.678 0.084 0.884 0.259 0.213 0.168 0.312 0.411 0.312 0.724 0 0.229-0.046 0.404-0.145 0.556-0.091 0.152-0.236 0.267-0.434 0.35l0.701 1.333v0.030h-0.716l-0.61-1.189zM32.724 25.851h0.533c0.168 0 0.305-0.038 0.389-0.122 0.085-0.083 0.138-0.199 0.138-0.327 0-0.011-0-0.021-0.001-0.032l0 0.001c0-0.152-0.038-0.274-0.13-0.358-0.084-0.091-0.221-0.137-0.396-0.137h-0.533v0.975zM36.777 26.438v1.143h-0.67v-3.246h1.265c0.244 0 0.457 0.046 0.648 0.137 0.183 0.084 0.328 0.213 0.427 0.381 0.099 0.16 0.152 0.35 0.152 0.556 0 0.32-0.114 0.571-0.335 0.762-0.213 0.175-0.518 0.267-0.899 0.267h-0.587zM36.777 25.905h0.594c0.175 0 0.312-0.046 0.404-0.13 0.099-0.084 0.145-0.206 0.145-0.358 0-0.005 0-0.010 0-0.015 0-0.142-0.055-0.27-0.145-0.366l0 0c-0.095-0.094-0.226-0.152-0.37-0.152-0.004 0-0.008 0-0.011 0h-0.617v1.013zM41.013 26.179h-1.288v0.869h1.509v0.533h-2.179v-3.246h2.179v0.541h-1.509v0.777h1.288v0.526zM44.122 24.884h-0.998v2.705h-0.67v-2.712h-0.983v-0.533h2.651v0.533zM46.461 26.179h-1.295v0.869h1.516v0.533h-2.187v-3.246h2.171v0.541h-1.486v0.777h1.288v0.526zM48.274 26.4h-0.533v1.189h-0.67v-3.253h1.211c0.381 0 0.686 0.084 0.891 0.259 0.206 0.168 0.305 0.411 0.305 0.724 0 0.229-0.046 0.404-0.137 0.556-0.099 0.152-0.244 0.267-0.442 0.35l0.709 1.333v0.030h-0.724l-0.61-1.189zM47.741 25.851h0.541c0.168 0 0.305-0.038 0.396-0.122 0.085-0.083 0.138-0.199 0.138-0.327 0-0.011-0-0.021-0.001-0.032l0 0.001c0-0.152-0.046-0.274-0.137-0.358-0.076-0.091-0.213-0.137-0.396-0.137h-0.533v0.975zM51.68 26.735c0-0.13-0.046-0.229-0.137-0.29-0.138-0.090-0.298-0.163-0.468-0.21l-0.012-0.003c-0.229-0.076-0.419-0.152-0.549-0.229-0.373-0.198-0.556-0.465-0.556-0.8 0-0.183 0.046-0.335 0.152-0.472 0.091-0.137 0.236-0.244 0.419-0.328 0.19-0.076 0.396-0.114 0.625-0.114s0.442 0.046 0.625 0.13c0.183 0.076 0.32 0.198 0.419 0.358 0.099 0.152 0.152 0.328 0.152 0.518h-0.67c0-0.152-0.046-0.267-0.137-0.343-0.098-0.081-0.225-0.13-0.363-0.13-0.012 0-0.023 0-0.034 0.001l0.002-0c-0.010-0.001-0.023-0.001-0.035-0.001-0.129 0-0.249 0.040-0.348 0.109l0.002-0.001c-0.084 0.060-0.137 0.157-0.137 0.267 0 0.003 0 0.005 0 0.008v-0c0 0.107 0.053 0.19 0.152 0.267 0.114 0.069 0.267 0.137 0.48 0.198 0.381 0.114 0.655 0.259 0.83 0.427s0.259 0.381 0.259 0.632c0 0.282-0.107 0.503-0.32 0.663s-0.495 0.244-0.861 0.244c-0.006 0-0.014 0-0.021 0-0.24 0-0.469-0.050-0.675-0.142l0.011 0.004c-0.372-0.14-0.633-0.494-0.633-0.908 0-0.008 0-0.015 0-0.023l-0 0.001h0.678c0 0.358 0.213 0.533 0.64 0.533 0.16 0 0.29-0.030 0.381-0.091 0.084-0.076 0.13-0.16 0.13-0.274z"></path>
</symbol>
<symbol id="icon-comp" viewBox="0 0 34 32">
<path fill="#afb1b8" style="fill: var(--color3, #afb1b8)" d="M5.638 31.314l0.038 0.008 0.030 0.015 0.168 0.16c-0.13 0.13-0.29 0.229-0.465 0.305-0.213 0.076-0.442 0.114-0.663 0.107-0.213 0-0.427-0.030-0.625-0.099-0.352-0.122-0.628-0.383-0.766-0.715l-0.003-0.008c-0.072-0.168-0.114-0.363-0.114-0.568s0.042-0.4 0.118-0.577l-0.004 0.010c0.076-0.16 0.183-0.312 0.328-0.442 0.137-0.122 0.305-0.221 0.495-0.282 0.192-0.069 0.413-0.109 0.644-0.109 0.214 0 0.42 0.034 0.612 0.098l-0.014-0.004c0.16 0.061 0.312 0.152 0.442 0.259l-0.137 0.168c-0.011 0.012-0.023 0.022-0.037 0.030l-0.001 0c-0.015 0.010-0.033 0.015-0.053 0.015-0 0-0 0-0.001 0h0c-0.023-0.003-0.044-0.011-0.061-0.023l0 0-0.076-0.046-0.099-0.053c-0.153-0.078-0.334-0.123-0.525-0.123-0.019 0-0.038 0-0.057 0.001l0.003-0c-0.152 0-0.312 0.023-0.457 0.076-0.271 0.093-0.484 0.294-0.592 0.55l-0.002 0.006c-0.057 0.13-0.091 0.282-0.091 0.442v0c0 0.152 0.030 0.312 0.084 0.457 0.104 0.259 0.313 0.458 0.572 0.547l0.007 0.002c0.137 0.046 0.282 0.076 0.427 0.076l0.251-0.015c0.212-0.023 0.4-0.108 0.55-0.237l-0.001 0.001c0.021-0.017 0.047-0.029 0.076-0.030l0-0zM10.438 30.514c0 0.198-0.030 0.381-0.107 0.564-0.076 0.16-0.175 0.305-0.312 0.434-0.145 0.13-0.305 0.229-0.495 0.29-0.404 0.137-0.853 0.137-1.265 0-0.189-0.068-0.351-0.166-0.489-0.291l0.001 0.001c-0.132-0.121-0.237-0.268-0.309-0.434l-0.003-0.008c-0.152-0.358-0.152-0.762 0-1.12 0.076-0.168 0.175-0.312 0.312-0.442 0.145-0.122 0.305-0.213 0.488-0.282 0.189-0.065 0.406-0.103 0.632-0.103s0.444 0.038 0.646 0.107l-0.014-0.004c0.183 0.069 0.35 0.168 0.495 0.29 0.258 0.238 0.42 0.577 0.42 0.955 0 0.015-0 0.031-0.001 0.046l0-0.002zM10.004 30.514c0-0.152-0.023-0.305-0.076-0.45-0.101-0.259-0.307-0.458-0.565-0.547l-0.007-0.002c-0.136-0.046-0.294-0.073-0.457-0.073s-0.321 0.027-0.467 0.076l0.010-0.003c-0.139 0.048-0.259 0.121-0.359 0.214l0.001-0.001c-0.098 0.091-0.176 0.203-0.226 0.329l-0.002 0.006c-0.099 0.297-0.099 0.61 0 0.907 0.102 0.261 0.311 0.461 0.573 0.547l0.007 0.002c0.297 0.091 0.625 0.091 0.914 0 0.137-0.053 0.259-0.122 0.358-0.213 0.099-0.099 0.175-0.213 0.221-0.335 0.053-0.152 0.076-0.305 0.076-0.457zM13.714 30.987l0.046 0.107 0.046-0.107 0.053-0.099 1.067-1.676c0.015-0.023 0.038-0.046 0.053-0.046 0.027-0.010 0.059-0.015 0.091-0.015v0h0.312v2.728h-0.373v-2.179l-1.067 1.699c-0.014 0.026-0.035 0.047-0.060 0.061l-0.001 0c-0.026 0.014-0.057 0.023-0.090 0.023-0 0-0.001 0-0.001 0h-0.061c-0.001 0-0.002 0-0.003 0-0.033 0-0.063-0.008-0.089-0.023l0.001 0c-0.026-0.014-0.047-0.035-0.061-0.060l-0-0.001-1.097-1.714v2.194h-0.366v-2.728h0.32c0.030 0 0.053 0 0.084 0.015 0.023 0.008 0.046 0.023 0.061 0.046l1.082 1.676 0.053 0.099zM17.707 30.857v1.021h-0.411v-2.728h0.93c0.168 0 0.343 0.023 0.51 0.061 0.137 0.030 0.259 0.091 0.366 0.168 0.099 0.076 0.168 0.168 0.213 0.267 0.046 0.114 0.076 0.229 0.069 0.35 0 0.002 0 0.005 0 0.008 0 0.248-0.119 0.469-0.303 0.608l-0.002 0.001c-0.107 0.084-0.229 0.152-0.366 0.183-0.145 0.044-0.313 0.069-0.486 0.069-0.006 0-0.012-0-0.018-0h0.001l-0.503-0.008zM17.707 30.56h0.503c0.114 0 0.221-0.008 0.328-0.038 0.088-0.028 0.164-0.070 0.23-0.123l-0.001 0.001c0.117-0.097 0.191-0.242 0.191-0.405 0-0.002 0-0.005-0-0.007v0c0.001-0.009 0.001-0.019 0.001-0.029 0-0.067-0.014-0.13-0.040-0.188l0.001 0.003c-0.037-0.076-0.088-0.14-0.151-0.19l-0.001-0.001c-0.152-0.107-0.35-0.152-0.556-0.145h-0.503v1.12zM23.291 31.878h-0.328c-0.003 0-0.007 0-0.011 0-0.030 0-0.058-0.009-0.081-0.024l0.001 0c-0.022-0.016-0.040-0.036-0.053-0.060l-0-0.001-0.282-0.663h-1.417l-0.297 0.663c-0.024 0.055-0.078 0.092-0.14 0.092-0.004 0-0.009-0-0.013-0.001l0.001 0h-0.32l1.25-2.735h0.434l1.257 2.728zM21.234 30.865h1.173l-0.495-1.105c-0.038-0.084-0.069-0.175-0.091-0.259l-0.046 0.145-0.046 0.114-0.495 1.105zM25.090 29.166l0.061 0.046 1.821 2.057v-2.118h0.366v2.728h-0.206c-0.030 0-0.061 0-0.084-0.015-0.027-0.014-0.050-0.032-0.068-0.053l-0-0-1.813-2.057v2.126h-0.373v-2.728h0.229c0.015 0 0.046 0 0.069 0.015zM30.4 30.796v1.082h-0.411v-1.082l-1.15-1.646h0.373c0.003-0 0.007-0 0.011-0 0.030 0 0.058 0.009 0.081 0.024l-0.001-0 0.053 0.061 0.716 1.067c0.045 0.067 0.088 0.145 0.125 0.226l0.004 0.010 0.053-0.114 0.076-0.122 0.701-1.067c0.015-0.023 0.033-0.043 0.053-0.061l0-0c0.023-0.019 0.053-0.031 0.086-0.031 0.002 0 0.004 0 0.005 0h0.381l-1.158 1.653zM13.509 24.579l0.549 0.046c2.781-1.067 5.093-2.834 6.791-5.089l0.028-0.039c1.514-2.018 2.425-4.565 2.425-7.324 0-0.077-0.001-0.154-0.002-0.23l0 0.011-3.093-2.682c0.632 2.842 0.335 5.775-0.846 8.48-1.296 2.832-3.301 5.15-5.791 6.789l-0.060 0.037z"></path>
<path fill="#afb1b8" style="fill: var(--color3, #afb1b8)" d="M12.404 24.457l0.084 0.008c2.819-1.752 4.975-4.198 6.171-7.032 0.682-1.541 1.080-3.339 1.080-5.229 0-1.282-0.183-2.522-0.524-3.695l0.023 0.093-4.404-3.817c1.372 2.346 2.182 5.166 2.182 8.175 0 0.69-0.043 1.371-0.125 2.038l0.008-0.080c-0.502 3.719-2.122 6.992-4.504 9.541l0.009-0.010zM27.33 15.109c-0.856 3.109-2.689 5.706-5.143 7.508l-0.038 0.027c-0.762 0.579-1.585 1.090-2.453 1.531 2.126-0.541 4.084-1.501 5.714-2.804 1.575-1.248 2.831-2.831 3.67-4.645l0.033-0.079-1.783-1.539z"></path>
<path fill="#afb1b8" style="fill: var(--color3, #afb1b8)" d="M26.629 14.674l-2.545-2.21c-0.068 2.681-0.951 5.143-2.41 7.161l0.026-0.037c-1.59 2.191-3.686 3.922-6.121 5.042l-0.097 0.040h0.015c0.571 0 1.143-0.030 1.707-0.084 2.417-0.853 4.477-2.196 6.144-3.919l0.004-0.004c1.561-1.615 2.707-3.641 3.258-5.9l0.018-0.088zM12.777 3.17l-3.032-2.636c-2.706 0.891-4.978 2.482-6.677 4.561l-0.020 0.026c-1.555 1.917-2.505 4.381-2.53 7.065l-0 0.005c0.040 2.975 1.2 5.672 3.077 7.695l-0.007-0.007c2.041 2.197 4.728 3.768 7.759 4.41l0.097 0.017c2.629-2.71 4.345-6.318 4.644-10.322l0.003-0.055c0.017-0.274 0.026-0.594 0.026-0.917 0-3.72-1.256-7.147-3.368-9.879l0.028 0.037zM33.63 14.27c-0.008-3.314-1.524-6.476-4.221-8.823-2.692-2.279-6.204-3.665-10.039-3.665-0.039 0-0.077 0-0.116 0l0.006-0c-1.76 0-3.505 0.282-5.15 0.838l18.56 16.114c0.604-1.312 0.958-2.847 0.96-4.464v-0.001z"></path>
</symbol>
<symbol id="icon-yaco" viewBox="0 0 28 32">
<path fill="#afb1b8" style="fill: var(--color3, #afb1b8)" d="M4.085 0l4.766 4.514h-8.851v21.903h23.149v-8.374l4.766 4.507v-22.55h-23.83zM22.945 17.518l-13.542-12.807h13.542v12.8zM18.737 23.224h-15.074v-14.74h1.069v13.74h14.005v1.001zM7.224 29.345l-0.558 1.144-0.558-1.144h-0.456l0.817 1.532v0.885h0.415v-0.885l0.817-1.532h-0.477zM7.925 31.762l0.191-0.558h0.94l0.204 0.558h0.436l-0.919-2.417h-0.374l-0.919 2.417h0.443zM8.586 29.855l0.354 1.008h-0.701l0.347-1.008zM10.805 30.808c-0.055 0.084-0.088 0.187-0.088 0.298 0 0.001 0 0.001 0 0.002v-0c0 0.204 0.068 0.374 0.211 0.497 0.143 0.129 0.34 0.191 0.579 0.191s0.443-0.068 0.613-0.191l0.136 0.157h0.477l-0.361-0.415c0.136-0.191 0.204-0.436 0.204-0.735h-0.34c0 0.163-0.041 0.313-0.109 0.443l-0.463-0.545 0.163-0.129c0.116-0.082 0.204-0.163 0.252-0.252 0.047-0.078 0.074-0.171 0.074-0.271 0-0.154-0.065-0.292-0.169-0.389l-0-0c-0.108-0.097-0.252-0.157-0.409-0.157-0.007 0-0.014 0-0.020 0l0.001-0c-0.012-0.001-0.025-0.001-0.039-0.001-0.166 0-0.317 0.062-0.432 0.165l0.001-0.001c-0.106 0.107-0.171 0.254-0.171 0.416 0 0.012 0 0.023 0.001 0.034l-0-0.002c0 0.082 0.020 0.163 0.054 0.245s0.102 0.184 0.197 0.3c-0.141 0.094-0.26 0.207-0.358 0.337l-0.003 0.004zM11.894 31.34c-0.103 0.084-0.236 0.135-0.381 0.136h-0c-0.006 0-0.013 0.001-0.020 0.001-0.102 0-0.196-0.039-0.266-0.103l0 0c-0.067-0.066-0.109-0.157-0.109-0.259 0-0.005 0-0.010 0-0.014l-0 0.001c0-0.136 0.068-0.245 0.204-0.347l0.048-0.041 0.524 0.626zM11.466 30.264c-0.116-0.136-0.17-0.252-0.17-0.347 0-0.082 0.020-0.15 0.068-0.204 0.044-0.046 0.105-0.075 0.174-0.075 0.004 0 0.007 0 0.011 0l-0.001-0c0.075 0 0.136 0.020 0.184 0.068 0.048 0.041 0.068 0.095 0.068 0.157 0 0.095-0.034 0.177-0.102 0.238l-0.048 0.041-0.184 0.123zM15.401 31.585c0.17-0.15 0.266-0.347 0.286-0.613h-0.415c-0.020 0.177-0.075 0.3-0.157 0.374-0.088 0.075-0.204 0.109-0.374 0.109-0.006 0-0.013 0-0.021 0-0.16 0-0.302-0.080-0.387-0.203l-0.001-0.002c-0.095-0.136-0.143-0.34-0.143-0.599v-0.211c0-0.259 0.048-0.456 0.15-0.586 0.095-0.136 0.238-0.204 0.422-0.204 0.157 0 0.272 0.041 0.354 0.116s0.136 0.204 0.157 0.374h0.415c-0.012-0.242-0.117-0.457-0.279-0.612l-0-0c-0.161-0.136-0.371-0.219-0.601-0.219-0.016 0-0.032 0-0.049 0.001l0.002-0c-0.204 0-0.374 0.048-0.524 0.136-0.15 0.102-0.272 0.232-0.347 0.409-0.082 0.17-0.123 0.374-0.123 0.599v0.232c0 0.218 0.041 0.415 0.123 0.586s0.191 0.3 0.34 0.388c0.15 0.095 0.32 0.136 0.511 0.136 0.272 0 0.497-0.068 0.66-0.211zM17.872 31.244c0.082-0.184 0.123-0.388 0.123-0.626v-0.136c0-0.238-0.041-0.443-0.123-0.613-0.146-0.332-0.471-0.559-0.85-0.559-0.012 0-0.025 0-0.037 0.001l0.002-0c-0.191 0-0.368 0.048-0.517 0.143-0.157 0.095-0.272 0.238-0.354 0.415-0.082 0.184-0.129 0.388-0.129 0.626v0.136c0 0.232 0.048 0.436 0.129 0.613s0.204 0.313 0.354 0.409c0.157 0.095 0.334 0.143 0.524 0.143 0.204 0 0.374-0.048 0.531-0.136 0.15-0.102 0.272-0.238 0.347-0.415zM17.423 29.876c0.102 0.136 0.157 0.347 0.157 0.613v0.129c0 0.272-0.054 0.477-0.157 0.62-0.090 0.129-0.237 0.212-0.403 0.212-0.009 0-0.018-0-0.027-0.001l0.001 0c-0.006 0-0.012 0-0.019 0-0.169 0-0.318-0.083-0.409-0.21l-0.001-0.002c-0.099-0.158-0.159-0.35-0.159-0.556 0-0.022 0.001-0.044 0.002-0.066l-0 0.003v-0.136c0-0.266 0.054-0.463 0.157-0.613 0.091-0.125 0.237-0.205 0.402-0.205 0.009 0 0.019 0 0.028 0.001l-0.001-0c0.184 0 0.327 0.068 0.429 0.204z"></path>
</symbol>
<symbol id="icon-group-1-1" viewBox="0 0 25 32">
<path fill="#afb1b8" style="fill: var(--color3, #afb1b8)" d="M10.529 1.803h-0.080l-0.388-0.012h-0.283c-0.018-0-0.039-0-0.060-0-0.26 0-0.519 0.007-0.776 0.020l0.036-0.002c-2.24 0.123-4.431 0.689-6.468 1.649l-0.265 0.129v13.625l0.622-0.209c1.995-0.718 4.297-1.147 6.695-1.175l0.013-0v1.791l-0.652 0.018h-0.049c-3.103 0.172-5.971 1.029-8.503 2.421l0.103-0.052v-17.483c1.38-0.817 2.977-1.482 4.667-1.911l0.127-0.027c1.352-0.364 2.905-0.577 4.506-0.585l0.005-0h0.265c1.123 0.004 2.21 0.149 3.247 0.42l-0.090-0.020v1.766c-0.627-0.155-1.371-0.273-2.132-0.33l-0.046-0.003h-0.043c-0.154-0.012-0.308-0.031-0.449-0.031zM13.631 3.606c0.348 0.022 0.754 0.035 1.163 0.035 1.701 0 3.351-0.219 4.922-0.631l-0.135 0.030c1.734-0.442 3.254-1.051 4.667-1.829l-0.101 0.051v17.163c-1.38 0.82-2.976 1.489-4.667 1.923l-0.127 0.028c-1.477 0.375-2.991 0.572-4.511 0.578-0.031 0-0.068 0-0.105 0-1.18 0-2.325-0.148-3.419-0.427l0.095 0.021v-17.274c0.639 0.156 1.396 0.274 2.17 0.33l0.046 0.003zM22.369 3.742l-0.622 0.209c-2.067 0.744-4.451 1.174-6.936 1.174-0.389 0-0.776-0.011-1.16-0.031l0.054 0.002-0.505-0.031v14.012l0.431 0.037c0.356 0.027 0.771 0.043 1.19 0.043 1.458 0 2.871-0.189 4.217-0.542l-0.115 0.026c1.218-0.313 2.275-0.707 3.277-1.195l-0.101 0.045 0.271-0.123v-13.625z"></path>
<path fill="#afb1b8" style="fill: var(--color3, #afb1b8)" d="M1.686 25.975c-0.168-0.171-0.401-0.278-0.66-0.278-0.012 0-0.025 0-0.037 0.001l0.002-0c-0.135 0-0.271 0.025-0.4 0.074-0.346 0.139-0.586 0.471-0.586 0.859 0 0.016 0 0.032 0.001 0.048l-0-0.002v2.338c0 0.16 0.025 0.326 0.092 0.474 0.062 0.123 0.135 0.228 0.234 0.314 0.092 0.080 0.203 0.135 0.32 0.166s0.234 0.049 0.351 0.049c0.536-0.010 0.966-0.447 0.966-0.984 0-0 0-0 0-0v0-0.258h-0.615v0.203c0.006 0.074 0 0.148-0.031 0.209-0.020 0.053-0.049 0.098-0.086 0.135v0c-0.069 0.053-0.157 0.085-0.252 0.086h-0c-0.012 0.002-0.027 0.003-0.041 0.003-0.102 0-0.192-0.049-0.248-0.125l-0.001-0.001c-0.054-0.084-0.086-0.187-0.086-0.297 0-0.006 0-0.012 0-0.018l-0 0.001v-2.178c0-0.123 0.025-0.24 0.080-0.345 0.055-0.087 0.151-0.144 0.26-0.144 0.012 0 0.025 0.001 0.037 0.002l-0.001-0c0.003-0 0.007-0 0.011-0 0.106 0 0.2 0.050 0.26 0.129l0.001 0.001c0.065 0.083 0.105 0.189 0.105 0.303 0 0.002 0 0.003-0 0.004v-0 0.209h0.603v-0.24c0-0.002 0-0.005 0-0.008 0-0.281-0.105-0.537-0.278-0.732l0.001 0.001zM5.311 25.951c-0.187-0.157-0.431-0.252-0.697-0.252-0.129 0-0.254 0.023-0.369 0.064l0.008-0.002c-0.123 0.043-0.228 0.105-0.32 0.185-0.105 0.098-0.185 0.209-0.24 0.332-0.062 0.142-0.092 0.295-0.086 0.455v2.234c-0.006 0.16 0.025 0.314 0.086 0.462 0.055 0.123 0.135 0.228 0.24 0.308 0.092 0.092 0.197 0.16 0.32 0.203 0.108 0.040 0.233 0.063 0.363 0.063s0.255-0.023 0.37-0.066l-0.007 0.002c0.38-0.131 0.648-0.486 0.648-0.904 0-0.022-0.001-0.044-0.002-0.066l0 0.003v-2.24c0.001-0.013 0.001-0.028 0.001-0.043 0-0.291-0.123-0.553-0.32-0.738l-0.001-0.001zM5.028 28.966c0.001 0.011 0.002 0.023 0.002 0.036 0 0.114-0.048 0.217-0.125 0.29l-0 0c-0.077 0.064-0.177 0.103-0.286 0.103s-0.209-0.039-0.287-0.104l0.001 0.001c-0.077-0.073-0.125-0.176-0.125-0.29 0-0.013 0.001-0.025 0.002-0.038l-0 0.002v-2.234c-0.001-0.011-0.002-0.023-0.002-0.036 0-0.114 0.048-0.217 0.125-0.29l0-0c0.077-0.064 0.177-0.103 0.286-0.103s0.209 0.039 0.287 0.104l-0.001-0.001c0.077 0.073 0.125 0.176 0.125 0.29 0 0.013-0.001 0.025-0.002 0.038l0-0.002v2.234zM10.074 29.969v-4.246h-0.591l-0.769 2.246h-0.012l-0.775-2.246h-0.578v4.24h0.603v-2.585h0.012l0.591 1.828h0.308l0.597-1.822h0.006v2.578h0.609zM13.514 26.031c-0.092-0.111-0.209-0.185-0.345-0.234-0.126-0.043-0.27-0.068-0.421-0.068-0.006 0-0.011 0-0.017 0h-0.898v4.24h0.603v-1.662h0.308c0.191 0.012 0.375-0.025 0.548-0.111 0.244-0.153 0.417-0.4 0.467-0.689l0.001-0.006c0.024-0.143 0.037-0.307 0.037-0.474 0-0.216-0.023-0.426-0.066-0.629l0.004 0.020c-0.042-0.154-0.119-0.287-0.222-0.394l0 0zM13.206 27.323c-0.006 0.074-0.025 0.148-0.062 0.215-0.037 0.062-0.086 0.123-0.154 0.148-0.078 0.039-0.171 0.062-0.269 0.062-0.005 0-0.010-0-0.015-0h-0.276v-1.446h0.308c0.098 0 0.185 0.012 0.277 0.055 0.062 0.031 0.111 0.086 0.142 0.154 0.030 0.069 0.048 0.149 0.049 0.233v0.579zM16.369 25.729h-0.492l-0.923 4.24h0.603l0.178-0.911h0.818l0.185 0.911h0.597l-0.954-4.24zM15.815 28.48l0.302-1.538h0.006l0.295 1.538h-0.603zM20.277 28.283h-0.012l-0.911-2.554h-0.578v4.24h0.603v-2.548h0.012l0.917 2.548h0.566v-4.246h-0.603v2.554zM23.969 25.729l-0.492 1.686h-0.006l-0.492-1.686h-0.634l0.831 2.449v1.785h0.603v-1.785l0.831-2.449h-0.64zM0 31.163h0.289v0.818h0.203v-0.818h0.289v-0.166h-0.782v0.166zM2.449 30.997l-0.382 0.985h0.209l0.080-0.222h0.394l0.080 0.222h0.215l-0.388-0.985h-0.209zM2.418 31.594l0.129-0.369 0.135 0.369h-0.265zM4.862 31.618h0.234v0.123c-0.063 0.052-0.145 0.085-0.234 0.086h-0c-0.005 0-0.011 0.001-0.017 0.001-0.078 0-0.147-0.036-0.192-0.092l-0-0c-0.047-0.066-0.074-0.148-0.074-0.236 0-0.008 0-0.016 0.001-0.023l-0 0.001c0-0.215 0.092-0.326 0.283-0.326 0.006-0.001 0.013-0.001 0.020-0.001 0.096 0 0.177 0.065 0.202 0.153l0 0.001 0.197-0.037c-0.043-0.191-0.185-0.289-0.418-0.289-0.006-0-0.012-0-0.019-0-0.125 0-0.24 0.047-0.327 0.124l0-0c-0.088 0.087-0.143 0.208-0.143 0.342 0 0.014 0.001 0.028 0.002 0.041l-0-0.002c0 0.135 0.037 0.271 0.123 0.369 0.088 0.092 0.211 0.149 0.347 0.149 0.010 0 0.020-0 0.030-0.001l-0.001 0c0.154 0 0.308-0.055 0.418-0.16v-0.388h-0.431v0.166zM7.335 30.997h-0.197v0.985h0.689v-0.166h-0.492v-0.818zM9.428 30.997h-0.203v0.985h0.203v-0.985zM11.471 31.655l-0.406-0.658h-0.191v0.985h0.185v-0.64l0.394 0.64h0.197v-0.985h-0.185v0.658zM13.317 31.551h0.492v-0.166h-0.492v-0.222h0.523v-0.166h-0.726v0.985h0.751v-0.166h-0.554v-0.265zM17.791 31.385h-0.388v-0.388h-0.197v0.985h0.197v-0.431h0.388v0.431h0.197v-0.985h-0.197v0.388zM19.649 31.551h0.492v-0.166h-0.492v-0.222h0.529v-0.166h-0.726v0.985h0.745v-0.166h-0.548v-0.265zM22.166 31.551c0.172-0.031 0.258-0.123 0.258-0.277 0.001-0.008 0.002-0.018 0.002-0.028 0-0.076-0.037-0.144-0.093-0.187l-0.001-0c-0.074-0.039-0.162-0.063-0.256-0.063-0.012 0-0.023 0-0.035 0.001l0.002-0h-0.418v0.985h0.197v-0.412h0.037c0.043 0 0.086 0.006 0.123 0.025 0.031 0.018 0.062 0.043 0.074 0.074l0.215 0.308h0.234l-0.123-0.185c-0.049-0.098-0.123-0.185-0.215-0.246zM21.969 31.415h-0.148v-0.246h0.154c0.068-0.006 0.142 0 0.203 0.018 0.031 0.023 0.051 0.059 0.051 0.099 0 0.043-0.022 0.081-0.056 0.103l-0 0c-0.050 0.016-0.108 0.026-0.168 0.026-0.012 0-0.025-0-0.037-0.001l0.002 0zM24.068 31.551h0.492v-0.166h-0.492v-0.222h0.529v-0.166h-0.726v0.985h0.745v-0.166h-0.548v-0.265z"></path>
</symbol>
<symbol id="icon-mailblue" viewBox="0 0 43 32">
<path fill="#2196f3" style="fill: var(--color2, #2196f3)" d="M38.667 0h-34.667c-2.213 0-4 1.787-4 4v24c0 2.213 1.787 4 4 4h34.667c2.213 0 4-1.787 4-4v-24c0-2.213-1.787-4-4-4zM38.667 2.667c0.003-0 0.007-0 0.011-0 0.189 0 0.368 0.039 0.531 0.11l-0.009-0.003-17.867 15.467-17.867-15.467c0.154-0.067 0.334-0.107 0.523-0.107 0.004 0 0.007 0 0.011 0h34.666zM38.667 29.333h-34.667c-0.736 0-1.333-0.597-1.333-1.333v0-22.4l17.787 15.413c0.234 0.206 0.542 0.332 0.88 0.332s0.646-0.126 0.881-0.333l-0.001 0.001 17.787-15.413v22.4c0 0.736-0.597 1.333-1.333 1.333v0z"></path>
</symbol>
</defs>
</svg>
